<mxfile host="65bd71144e">
    <diagram id="lYpE3dDIqmqJ6G3t6TBV" name="Page-1">
        <mxGraphModel dx="1138" dy="661" grid="1" gridSize="10" guides="1" tooltips="1" connect="1" arrows="1" fold="1" page="1" pageScale="1" pageWidth="1100" pageHeight="850" math="0" shadow="0">
            <root>
                <mxCell id="0"/>
                <mxCell id="1" parent="0"/>
                <mxCell id="2" value="John" style="shape=umlActor;verticalLabelPosition=bottom;verticalAlign=top;html=1;" vertex="1" parent="1">
                    <mxGeometry x="350" y="20" width="30" height="60" as="geometry"/>
                </mxCell>
                <mxCell id="5" value="Joe" style="shape=umlActor;verticalLabelPosition=bottom;verticalAlign=top;html=1;" vertex="1" parent="1">
                    <mxGeometry x="350" y="120" width="30" height="60" as="geometry"/>
                </mxCell>
                <mxCell id="6" value="Jill" style="shape=umlActor;verticalLabelPosition=bottom;verticalAlign=top;html=1;" vertex="1" parent="1">
                    <mxGeometry x="350" y="220" width="30" height="60" as="geometry"/>
                </mxCell>
                <mxCell id="7" value="Jack" style="shape=umlActor;verticalLabelPosition=bottom;verticalAlign=top;html=1;" vertex="1" parent="1">
                    <mxGeometry x="350" y="320" width="30" height="60" as="geometry"/>
                </mxCell>
                <mxCell id="8" value="Jane" style="shape=umlActor;verticalLabelPosition=bottom;verticalAlign=top;html=1;" vertex="1" parent="1">
                    <mxGeometry x="350" y="420" width="30" height="60" as="geometry"/>
                </mxCell>
                <mxCell id="10" value="Jen" style="shape=umlActor;verticalLabelPosition=bottom;verticalAlign=top;html=1;" vertex="1" parent="1">
                    <mxGeometry x="350" y="520" width="30" height="60" as="geometry"/>
                </mxCell>
                <mxCell id="11" value="Jade" style="shape=umlActor;verticalLabelPosition=bottom;verticalAlign=top;html=1;" vertex="1" parent="1">
                    <mxGeometry x="350" y="620" width="30" height="60" as="geometry"/>
                </mxCell>
                <mxCell id="12" value="MVP Base Case Information:&lt;br&gt;- Hestico is the only Supplier company. &lt;br&gt;- The Hestico admin role will be created mannually.&lt;br&gt;- The system starts with a hestico admin John@hestico.co.za already created.&lt;br&gt;- The Register screen is available to anyone on the internet.&lt;br&gt;- We have bad actors in the system.&amp;nbsp;&lt;br&gt;- Client Admin people must be aboe to set up new client companies&lt;br&gt;- Client Admin people must be able to add authorised email adresses for access&lt;br&gt;&lt;br&gt;MVP Client User Roles&lt;br&gt;- There are two Client roles: Client Admin, Client User&lt;br&gt;- Client Admin can add new Client Users&lt;br&gt;- Client Admin can make a Client User a Client Admin&lt;br&gt;- Client Admin can make a Client Admin a Client User&lt;br&gt;- Client Admin and Client User can interact with the system the same way, create and update requests.&amp;nbsp;&lt;br&gt;- With the exception of Client Admin being able to make a Client User a Client Admin, all Client Actors have the same access and rights on the system.&amp;nbsp;&lt;br&gt;&lt;br&gt;MVP Supplier User Roles&lt;br&gt;- There are two Supplier&amp;nbsp;roles: Supplier&amp;nbsp;Admin, Supplier&amp;nbsp;Technician&lt;br style=&quot;border-color: var(--border-color);&quot;&gt;- Supplier&amp;nbsp;Admin can add new Supplier&amp;nbsp;Technician's&lt;br style=&quot;border-color: var(--border-color);&quot;&gt;- Supplier&amp;nbsp;Admin can make a Supplier&amp;nbsp;Technician&amp;nbsp;a Supplier&amp;nbsp;Admin&lt;br style=&quot;border-color: var(--border-color);&quot;&gt;- Supplier&amp;nbsp;&amp;nbsp;Admin can make a Supplier&amp;nbsp;Admin a Supplier&amp;nbsp;Technician&lt;br style=&quot;border-color: var(--border-color);&quot;&gt;- Supplier&amp;nbsp;Admin and Supplier&amp;nbsp;User can interact with the system create and update request functionality.&amp;nbsp;&lt;br&gt;- Supplier users can create and update cases on behalf of the client&lt;br style=&quot;border-color: var(--border-color);&quot;&gt;- With the exception of Supplier&amp;nbsp;Admin being able to make a Supplier&amp;nbsp;User a Supplier&amp;nbsp;Admin, all Supplier&amp;nbsp;Actors have the same access and rights on the system." style="text;html=1;strokeColor=none;fillColor=none;align=left;verticalAlign=top;whiteSpace=wrap;rounded=0;" vertex="1" parent="1">
                    <mxGeometry x="10" y="10" width="310" height="820" as="geometry"/>
                </mxCell>
                <mxCell id="13" value="John is the Hestico admin, he wants to:&amp;nbsp;&lt;br&gt;1- Add email adresses for new Technicians&lt;br&gt;2- Make Joe an Admin as well, as Jill is hard to manage and not his job." style="text;html=1;strokeColor=none;fillColor=none;align=left;verticalAlign=top;whiteSpace=wrap;rounded=0;" vertex="1" parent="1">
                    <mxGeometry x="390" y="20" width="480" height="80" as="geometry"/>
                </mxCell>
                <mxCell id="14" value="Joe is a Hestico Technician, he wants to:&amp;nbsp;&lt;br&gt;1- Register on the portal once John added him as a user and he received a conformation message" style="text;html=1;strokeColor=none;fillColor=none;align=left;verticalAlign=top;whiteSpace=wrap;rounded=0;" vertex="1" parent="1">
                    <mxGeometry x="390" y="120" width="480" height="80" as="geometry"/>
                </mxCell>
                <mxCell id="15" value="Jill is an overeager Hestico Technician, she wants to:&amp;nbsp;&lt;br&gt;1- Register as a Hestico Technician before John Admin added her as a user&lt;span style=&quot;color: rgba(0, 0, 0, 0); font-family: monospace; font-size: 0px;&quot;&gt;%3CmxGraphModel%3E%3Croot%3E%3CmxCell%20id%3D%220%22%2F%3E%3CmxCell%20id%3D%221%22%20parent%3D%220%22%2F%3E%3CmxCell%20id%3D%222%22%20value%3D%22John%20is%20the%20Hestico%20admin%2C%20he%20wants%20to%3A%26amp%3Bnbsp%3B%26lt%3Bbr%26gt%3B1-%20Add%20email%20adresses%20for%20new%20Technicians%22%20style%3D%22text%3Bhtml%3D1%3BstrokeColor%3Dnone%3BfillColor%3Dnone%3Balign%3Dleft%3BverticalAlign%3Dtop%3BwhiteSpace%3Dwrap%3Brounded%3D0%3B%22%20vertex%3D%221%22%20parent%3D%221%22%3E%3CmxGeometry%20x%3D%22440%22%20y%3D%2240%22%20width%3D%22480%22%20height%3D%2280%22%20as%3D%22geometry%22%2F%3E%3C%2FmxCell%3E%3C%2Froot%3E%3C%2FmxGraphModel%3E&lt;/span&gt;" style="text;html=1;strokeColor=none;fillColor=none;align=left;verticalAlign=top;whiteSpace=wrap;rounded=0;" vertex="1" parent="1">
                    <mxGeometry x="390" y="220" width="480" height="80" as="geometry"/>
                </mxCell>
                <mxCell id="16" value="Jack is the Owner of JacksPlastics and an existing Hestico client. He has a company domain JackPlas.com. He has been shown the system and he wants to:&amp;nbsp;&lt;br&gt;1- Register his company and by doing so make himself Admin&lt;br&gt;2- Add Jane and make her Admin" style="text;html=1;strokeColor=none;fillColor=none;align=left;verticalAlign=top;whiteSpace=wrap;rounded=0;" vertex="1" parent="1">
                    <mxGeometry x="390" y="320" width="480" height="80" as="geometry"/>
                </mxCell>
                <mxCell id="17" value="Jane works for JacksPlastics and wants to:&amp;nbsp;&lt;br&gt;1- Register herself based on a confirmation message received&lt;br&gt;2- Register Jen as a User associated with JacksPlastics" style="text;html=1;strokeColor=none;fillColor=none;align=left;verticalAlign=top;whiteSpace=wrap;rounded=0;" vertex="1" parent="1">
                    <mxGeometry x="390" y="420" width="480" height="80" as="geometry"/>
                </mxCell>
                <mxCell id="18" value="Joel" style="shape=umlActor;verticalLabelPosition=bottom;verticalAlign=top;html=1;" vertex="1" parent="1">
                    <mxGeometry x="350" y="720" width="30" height="60" as="geometry"/>
                </mxCell>
                <mxCell id="19" value="Joel is the Owner of JoelPlastics in Namibia and a potential new client. He operates from joeltheman@gmail.com. He found the app on the internet and he wants to:&amp;nbsp;&lt;br&gt;1- Register his company and by doing so make himself Admin&lt;br&gt;2- Ask Hestico if they are even willing to come fix his competitor brand equipment in Swakopmund" style="text;html=1;strokeColor=none;fillColor=none;align=left;verticalAlign=top;whiteSpace=wrap;rounded=0;" vertex="1" parent="1">
                    <mxGeometry x="390" y="720" width="480" height="80" as="geometry"/>
                </mxCell>
                <mxCell id="20" value="Jade works for JacksPlastics and wants to :&amp;nbsp;&lt;br&gt;1- Register herself as she wants to cause shit in the system, being upset with Jack and Jane (vicious love triangle gone bad)" style="text;html=1;strokeColor=none;fillColor=none;align=left;verticalAlign=top;whiteSpace=wrap;rounded=0;" vertex="1" parent="1">
                    <mxGeometry x="390" y="620" width="480" height="80" as="geometry"/>
                </mxCell>
                <mxCell id="21" value="Jen works for JacksPlastics, she is tech savvy and eager,&amp;nbsp;she wants to:&amp;nbsp;&lt;br&gt;1- Register before Jane added her,(they are standing next to each other figuring this out)." style="text;html=1;strokeColor=none;fillColor=none;align=left;verticalAlign=top;whiteSpace=wrap;rounded=0;" vertex="1" parent="1">
                    <mxGeometry x="400" y="520" width="480" height="80" as="geometry"/>
                </mxCell>
                <mxCell id="22" value="Jade" style="shape=umlActor;verticalLabelPosition=bottom;verticalAlign=top;html=1;" vertex="1" parent="1">
                    <mxGeometry x="900" y="20" width="30" height="60" as="geometry"/>
                </mxCell>
                <mxCell id="23" value="Judy" style="shape=umlActor;verticalLabelPosition=bottom;verticalAlign=top;html=1;" vertex="1" parent="1">
                    <mxGeometry x="900" y="120" width="30" height="60" as="geometry"/>
                </mxCell>
                <mxCell id="24" value="Juan" style="shape=umlActor;verticalLabelPosition=bottom;verticalAlign=top;html=1;" vertex="1" parent="1">
                    <mxGeometry x="900" y="220" width="30" height="60" as="geometry"/>
                </mxCell>
                <mxCell id="25" value="Joel" style="shape=umlActor;verticalLabelPosition=bottom;verticalAlign=top;html=1;" vertex="1" parent="1">
                    <mxGeometry x="900" y="320" width="30" height="60" as="geometry"/>
                </mxCell>
                <mxCell id="26" value="Jane" style="shape=umlActor;verticalLabelPosition=bottom;verticalAlign=top;html=1;" vertex="1" parent="1">
                    <mxGeometry x="900" y="420" width="30" height="60" as="geometry"/>
                </mxCell>
                <mxCell id="27" value="Juno" style="shape=umlActor;verticalLabelPosition=bottom;verticalAlign=top;html=1;" vertex="1" parent="1">
                    <mxGeometry x="900" y="520" width="30" height="60" as="geometry"/>
                </mxCell>
                <mxCell id="28" value="Jaze" style="shape=umlActor;verticalLabelPosition=bottom;verticalAlign=top;html=1;" vertex="1" parent="1">
                    <mxGeometry x="900" y="620" width="30" height="60" as="geometry"/>
                </mxCell>
                <mxCell id="29" value="..." style="text;html=1;strokeColor=none;fillColor=none;align=left;verticalAlign=top;whiteSpace=wrap;rounded=0;" vertex="1" parent="1">
                    <mxGeometry x="940" y="20" width="480" height="80" as="geometry"/>
                </mxCell>
                <mxCell id="30" value="..." style="text;html=1;strokeColor=none;fillColor=none;align=left;verticalAlign=top;whiteSpace=wrap;rounded=0;" vertex="1" parent="1">
                    <mxGeometry x="940" y="120" width="480" height="80" as="geometry"/>
                </mxCell>
                <mxCell id="31" value="..." style="text;html=1;strokeColor=none;fillColor=none;align=left;verticalAlign=top;whiteSpace=wrap;rounded=0;" vertex="1" parent="1">
                    <mxGeometry x="940" y="220" width="480" height="80" as="geometry"/>
                </mxCell>
                <mxCell id="32" value="..." style="text;html=1;strokeColor=none;fillColor=none;align=left;verticalAlign=top;whiteSpace=wrap;rounded=0;" vertex="1" parent="1">
                    <mxGeometry x="940" y="320" width="480" height="80" as="geometry"/>
                </mxCell>
                <mxCell id="33" value="..." style="text;html=1;strokeColor=none;fillColor=none;align=left;verticalAlign=top;whiteSpace=wrap;rounded=0;" vertex="1" parent="1">
                    <mxGeometry x="940" y="420" width="480" height="80" as="geometry"/>
                </mxCell>
                <mxCell id="34" value="Other Joe" style="shape=umlActor;verticalLabelPosition=bottom;verticalAlign=top;html=1;" vertex="1" parent="1">
                    <mxGeometry x="900" y="720" width="30" height="60" as="geometry"/>
                </mxCell>
                <mxCell id="35" value="...." style="text;html=1;strokeColor=none;fillColor=none;align=left;verticalAlign=top;whiteSpace=wrap;rounded=0;" vertex="1" parent="1">
                    <mxGeometry x="940" y="720" width="480" height="80" as="geometry"/>
                </mxCell>
                <mxCell id="36" value="..." style="text;html=1;strokeColor=none;fillColor=none;align=left;verticalAlign=top;whiteSpace=wrap;rounded=0;" vertex="1" parent="1">
                    <mxGeometry x="940" y="620" width="480" height="80" as="geometry"/>
                </mxCell>
                <mxCell id="37" value="..." style="text;html=1;strokeColor=none;fillColor=none;align=left;verticalAlign=top;whiteSpace=wrap;rounded=0;" vertex="1" parent="1">
                    <mxGeometry x="950" y="520" width="480" height="80" as="geometry"/>
                </mxCell>
            </root>
        </mxGraphModel>
    </diagram>
</mxfile>